<svg width="29" height="33" viewBox="0 0 29 33" fill="none" xmlns="http://www.w3.org/2000/svg">
<path d="M4.83 5.00305C3.549 5.00305 2.32048 5.47957 1.41467 6.32778C0.508874 7.17599 0 8.32641 0 9.52596V31.9251C0.000218614 32.1233 0.0588413 32.3176 0.169412 32.4866C0.279983 32.6556 0.438214 32.7927 0.626679 32.8829C0.815144 32.9731 1.02653 33.0129 1.23757 32.9978C1.4486 32.9827 1.6511 32.9133 1.82275 32.7974L11.5 26.2553L21.1773 32.7996C21.3491 32.9156 21.5518 32.985 21.763 33C21.9742 33.015 22.1858 32.975 22.3743 32.8846C22.5629 32.7941 22.7211 32.6567 22.8315 32.4874C22.9419 32.3181 23.0002 32.1235 23 31.9251V9.52596C23 8.32641 22.4911 7.17599 21.5853 6.32778C20.6795 5.47957 19.451 5.00305 18.17 5.00305H4.83Z" fill="white"/>
<path d="M7.15 9C6.31457 9 5.51335 9.30633 4.92261 9.85161C4.33187 10.3969 4 11.1364 4 11.9076V26.307C4.00014 26.4345 4.03837 26.5594 4.11049 26.668C4.1826 26.7766 4.28579 26.8648 4.4087 26.9228C4.53162 26.9808 4.66948 27.0063 4.80711 26.9966C4.94474 26.9869 5.0768 26.9423 5.18875 26.8678L11.5 22.6622L17.8113 26.8692C17.9233 26.9438 18.0555 26.9884 18.1933 26.998C18.331 27.0077 18.469 26.982 18.592 26.9239C18.7149 26.8657 18.8181 26.7773 18.8901 26.6685C18.9621 26.5597 19.0001 26.4346 19 26.307V11.9076C19 11.1364 18.6681 10.3969 18.0774 9.85161C17.4866 9.30633 16.6854 9 15.85 9H7.15Z" fill="#19191B"/>
<rect x="12.1772" y="2" width="16" height="14" fill="#19191B"/>
<rect x="15.1772" y="5" width="13" height="3" rx="1.5" fill="white"/>
<rect x="23.1772" width="13" height="3" rx="1.5" transform="rotate(90 23.1772 0)" fill="white"/>
</svg>
