<svg width="30" height="37" viewBox="0 0 30 37" fill="currentColor" xmlns="http://www.w3.org/2000/svg">
<path d="M3.18114 36.121C2.6507 36.121 2.14199 35.9103 1.76692 35.5352C1.39185 35.1601 1.18114 34.6514 1.18114 34.121L0.881136 4.80098C0.857053 4.20567 0.950902 3.61147 1.15728 3.05256C1.36367 2.49365 1.67851 1.98105 2.08371 1.54426C2.48891 1.10746 2.97646 0.755084 3.51833 0.507392C4.0602 0.2597 4.64569 0.12158 5.24113 0.100976L24.4211 0.000976562C25.0174 0.0113902 25.6057 0.139161 26.1525 0.376992C26.6994 0.614822 27.194 0.958052 27.6082 1.38708C28.0223 1.8161 28.3479 2.32252 28.5664 2.8774C28.7848 3.43228 28.8917 4.02475 28.8811 4.62098L29.1611 33.941C29.1646 34.2914 29.0758 34.6367 28.9038 34.942C28.7319 35.2474 28.4826 35.5023 28.1811 35.681C27.8771 35.8565 27.5322 35.9489 27.1811 35.9489C26.8301 35.9489 26.4852 35.8565 26.1811 35.681L14.7811 29.361L4.20114 35.821C3.88784 35.996 3.53929 36.0985 3.18114 36.121ZM14.7011 25.021C15.0487 25.0216 15.3912 25.1038 15.7011 25.261L25.1211 30.481L24.8811 4.58098C24.8811 4.18098 24.6211 3.90098 24.4611 3.92098L5.26114 4.10098C5.10114 4.10098 4.88113 4.36098 4.88113 4.76098L5.12113 30.561L13.6811 25.301C13.992 25.123 14.3429 25.0266 14.7011 25.021Z" fill="currentColor"/>
</svg>
