<svg width="40" height="38" viewBox="0 0 40 38" fill="currentColor" xmlns="http://www.w3.org/2000/svg">
<path fill-rule="currentColor" clip-rule="evenodd" d="M16.9332 35.5345C16.9332 34.9863 16.7155 34.4607 16.3279 34.0731C15.9403 33.6855 15.4147 33.4678 14.8666 33.4678H4.53324V4.53446H14.8666C15.4147 4.53446 15.9403 4.31672 16.3279 3.92914C16.7155 3.54157 16.9332 3.0159 16.9332 2.46779C16.9332 1.91968 16.7155 1.39401 16.3279 1.00644C15.9403 0.61886 15.4147 0.401123 14.8666 0.401123H4.53324C3.43701 0.401123 2.38568 0.836598 1.61053 1.61175C0.835377 2.3869 0.399902 3.43823 0.399902 4.53446V33.4678C0.399902 34.564 0.835377 35.6153 1.61053 36.3905C2.38568 37.1656 3.43701 37.6011 4.53324 37.6011H14.8666C15.4147 37.6011 15.9403 37.3834 16.3279 36.9958C16.7155 36.6082 16.9332 36.0826 16.9332 35.5345Z" fill="currentColor"/>
<path d="M39.0749 20.4524C39.453 20.0681 39.6652 19.5509 39.666 19.0119V18.9995C39.6649 18.4534 39.4471 17.9301 39.0605 17.5446L30.7938 9.2779C30.6032 9.08051 30.3751 8.92307 30.123 8.81476C29.8708 8.70645 29.5996 8.64944 29.3252 8.64705C29.0508 8.64467 28.7787 8.69696 28.5247 8.80087C28.2707 8.90478 28.04 9.05824 27.8459 9.25228C27.6519 9.44633 27.4984 9.67708 27.3945 9.93106C27.2906 10.185 27.2383 10.4572 27.2407 10.7316C27.2431 11.006 27.3001 11.2772 27.4084 11.5293C27.5167 11.7815 27.6741 12.0095 27.8715 12.2002L32.6104 16.939H12.7993C12.2512 16.939 11.7256 17.1568 11.338 17.5443C10.9504 17.9319 10.7327 18.4576 10.7327 19.0057C10.7327 19.5538 10.9504 20.0795 11.338 20.4671C11.7256 20.8546 12.2512 21.0724 12.7993 21.0724H32.6104L27.8715 25.8112C27.4951 26.201 27.2868 26.7231 27.2915 27.2649C27.2962 27.8068 27.5135 28.3251 27.8967 28.7083C28.2799 29.0915 28.7982 29.3089 29.3401 29.3136C29.882 29.3183 30.404 29.11 30.7938 28.7335L39.0605 20.4668L39.0749 20.4524Z" fill="currentColor"/>
</svg>
