<svg width="35" height="40" viewBox="0 0 35 40" fill="currentColor" xmlns="http://www.w3.org/2000/svg">
<path d="M33.2412 25.8518C31.9078 24.5418 30.5428 23.1852 30.5428 16.7852C30.5389 13.6993 29.4422 10.7145 27.4472 8.36009C25.4522 6.00573 22.6879 4.43395 19.6445 3.92351L19.5678 3.91351C19.8255 3.53767 19.9755 3.09856 20.0017 2.64364C20.0279 2.18872 19.9292 1.7353 19.7164 1.33238C19.5036 0.929464 19.1847 0.592374 18.7942 0.357546C18.4037 0.122718 17.9564 -0.000916914 17.5008 5.11972e-06C17.0451 0.000927154 16.5983 0.126371 16.2088 0.362777C15.8192 0.599184 15.5017 0.937561 15.2905 1.34134C15.0793 1.74511 14.9825 2.19893 15.0105 2.65374C15.0386 3.10855 15.1904 3.54705 15.4495 3.92184L15.4445 3.91351C9.18952 4.95184 4.47951 10.3185 4.47118 16.7852V16.7868C4.47118 23.1868 3.10118 24.5452 1.77285 25.8535C0.976465 26.5553 0.412737 27.4831 0.156705 28.5133C-0.0993272 29.5434 -0.0355174 30.6271 0.33964 31.6201C0.714798 32.6131 1.38351 33.4683 2.25675 34.0718C3.12999 34.6754 4.16634 34.9986 5.22785 34.9985H12.5062C12.5062 36.3246 13.033 37.5964 13.9706 38.534C14.9083 39.4717 16.1801 39.9985 17.5062 39.9985C18.8323 39.9985 20.104 39.4717 21.0417 38.534C21.9794 37.5964 22.5062 36.3246 22.5062 34.9985H29.7895C30.8503 34.9985 31.886 34.6755 32.7588 34.0726C33.6316 33.4697 34.3003 32.6155 34.6758 31.6234C35.0514 30.6313 35.1161 29.5483 34.8613 28.5186C34.6065 27.4888 34.0444 26.561 33.2495 25.8585L33.2445 25.8535L33.2412 25.8518ZM17.5062 36.8735C17.0092 36.8726 16.5328 36.6748 16.1813 36.3234C15.8299 35.9719 15.6321 35.4955 15.6312 34.9985H19.3828C19.382 35.4958 19.1839 35.9725 18.8321 36.3239C18.4803 36.6754 18.0035 36.8731 17.5062 36.8735ZM29.7728 31.2468H5.22951C4.93886 31.2452 4.65516 31.1578 4.41394 30.9957C4.17272 30.8335 3.98473 30.6038 3.8735 30.3353C3.76228 30.0667 3.73278 29.7713 3.7887 29.4861C3.84462 29.2009 3.98347 28.9385 4.18785 28.7318C6.42118 26.4985 8.21785 24.3785 8.21785 16.7818C8.21785 14.3189 9.19626 11.9568 10.9378 10.2152C12.6794 8.47359 15.0415 7.49518 17.5045 7.49518C19.9675 7.49518 22.3296 8.47359 24.0712 10.2152C25.8128 11.9568 26.7912 14.3189 26.7912 16.7818C26.7912 24.4118 28.6062 26.5152 30.8212 28.7318C31.0256 28.9385 31.1644 29.2009 31.2203 29.4861C31.2762 29.7713 31.2467 30.0667 31.1355 30.3353C31.0243 30.6038 30.8363 30.8335 30.5951 30.9957C30.3539 31.1578 30.0702 31.2452 29.7795 31.2468H29.7728Z" fill="currentColor"/>
</svg>
