<svg width="38" height="38" viewBox="0 0 38 38" fill="currentColor" xmlns="http://www.w3.org/2000/svg">
<path d="M2.46657 21.0653H14.8666C16.0032 21.0653 16.9332 20.1353 16.9332 18.9986V2.46529C16.9332 1.32862 16.0032 0.398621 14.8666 0.398621L2.46657 0.398621C1.3299 0.398621 0.399902 1.32862 0.399902 2.46529L0.399902 18.9986C0.399902 20.1353 1.3299 21.0653 2.46657 21.0653ZM2.46657 37.5986H14.8666C16.0032 37.5986 16.9332 36.6686 16.9332 35.5319L16.9332 27.2653C16.9332 26.1286 16.0032 25.1986 14.8666 25.1986H2.46657C1.3299 25.1986 0.399902 26.1286 0.399902 27.2653L0.399902 35.5319C0.399902 36.6686 1.3299 37.5986 2.46657 37.5986ZM23.1332 37.5986H35.5332C36.6699 37.5986 37.5999 36.6686 37.5999 35.5319V18.9986C37.5999 17.862 36.6699 16.932 35.5332 16.932L23.1332 16.932C21.9966 16.932 21.0666 17.862 21.0666 18.9986L21.0666 35.5319C21.0666 36.6686 21.9966 37.5986 23.1332 37.5986ZM21.0666 2.46529V10.732C21.0666 11.8686 21.9966 12.7986 23.1332 12.7986H35.5332C36.6699 12.7986 37.5999 11.8686 37.5999 10.732V2.46529C37.5999 1.32862 36.6699 0.398621 35.5332 0.398621L23.1332 0.398621C21.9966 0.398621 21.0666 1.32862 21.0666 2.46529Z" fill="currentColor"/>
</svg>
