<svg width="18" height="17" viewBox="0 0 18 17" fill="none" xmlns="http://www.w3.org/2000/svg">
<path d="M16.7364 6.39649L11.7774 5.67579L9.56062 1.18165C9.50007 1.0586 9.40046 0.958992 9.27742 0.898445C8.96882 0.746101 8.59382 0.873054 8.43953 1.18165L6.22273 5.67579L1.26374 6.39649C1.12702 6.41602 1.00202 6.48048 0.906317 6.57813C0.790617 6.69705 0.726862 6.85704 0.729059 7.02294C0.731256 7.18884 0.799227 7.34709 0.918036 7.4629L4.50593 10.9609L3.65827 15.9004C3.63839 16.0153 3.65111 16.1335 3.69498 16.2415C3.73884 16.3496 3.8121 16.4432 3.90645 16.5117C4.0008 16.5802 4.11247 16.6209 4.22878 16.6292C4.34509 16.6375 4.4614 16.6131 4.56452 16.5586L9.00007 14.2266L13.4356 16.5586C13.5567 16.6231 13.6973 16.6445 13.8321 16.6211C14.172 16.5625 14.4005 16.2402 14.3419 15.9004L13.4942 10.9609L17.0821 7.4629C17.1798 7.3672 17.2442 7.2422 17.2638 7.10548C17.3165 6.76368 17.0782 6.44727 16.7364 6.39649Z" fill="#FFCE31"/>
</svg>
