<svg width="40" height="40" viewBox="0 0 40 40" fill="currentColor" xmlns="http://www.w3.org/2000/svg">
<path d="M13.5137 39.1334C12.5799 39.1279 11.6732 38.819 10.9304 38.2532L6.96926 35.3063C6.05517 34.5936 5.44865 33.5579 5.27427 32.412C5.09989 31.2661 5.37089 30.0969 6.03161 29.1445C6.3812 28.6283 6.60337 28.0366 6.67988 27.4179C6.75639 26.7991 6.68505 26.1711 6.47173 25.5853L6.35692 25.2791C6.20839 24.7489 5.93691 24.2611 5.56452 23.8555C5.19213 23.4499 4.72934 23.1378 4.21371 22.9445H3.90754C2.78976 22.5687 1.86538 21.767 1.33513 20.7137C0.804872 19.6603 0.711554 18.4403 1.07544 17.3186L2.64457 12.3433C2.78902 11.7669 3.05495 11.2279 3.42458 10.7626C3.7942 10.2973 4.25897 9.91628 4.78778 9.64515C5.28024 9.39141 5.81907 9.24023 6.37165 9.20076C6.92423 9.16129 7.47907 9.23435 8.0026 9.41552C8.57262 9.60736 9.18088 9.65709 9.77449 9.56037C10.3681 9.46366 10.9291 9.22344 11.4088 8.86058L11.6575 8.66922C12.0917 8.32278 12.4426 7.88332 12.6844 7.38323C12.9262 6.88314 13.0526 6.33518 13.0545 5.77972V5.32046C13.0493 4.1496 13.5069 3.02411 14.3277 2.18904C15.1484 1.35397 16.2658 0.876946 17.4366 0.861816H22.3162C22.8858 0.863351 23.4495 0.977405 23.9749 1.19743C24.5004 1.41745 24.9772 1.7391 25.3779 2.14392C26.2205 3.0008 26.6885 4.15705 26.6791 5.35873V5.89453C26.6694 6.4222 26.7839 6.94477 27.0132 7.42009C27.2426 7.89542 27.5804 8.31019 27.9995 8.63095L28.21 8.78404C28.6395 9.1061 29.1405 9.31954 29.6703 9.40617C30.2 9.4928 30.7429 9.45005 31.2526 9.28157L31.9032 9.07107C32.4545 8.88835 33.0368 8.81852 33.6157 8.86574C34.1945 8.91296 34.7578 9.07628 35.2722 9.34594C35.7865 9.61561 36.2412 9.98609 36.6093 10.4353C36.9773 10.8845 37.2511 11.4033 37.4143 11.9606L38.9261 16.7828C39.2759 17.8973 39.1802 19.1039 38.6593 20.1493C38.1384 21.1948 37.2326 21.9978 36.1322 22.3896L35.7495 22.5235C35.1866 22.7079 34.6776 23.0276 34.2672 23.4547C33.8568 23.8818 33.5576 24.4031 33.3958 24.9729C33.2435 25.5026 33.2074 26.059 33.29 26.6039C33.3725 27.1489 33.5718 27.6695 33.8742 28.1303L34.3717 28.8575C35.0315 29.8151 35.3 30.9889 35.1221 32.1381C34.9442 33.2874 34.3334 34.325 33.4149 35.0384L29.5687 38.0044C29.104 38.3598 28.5715 38.6163 28.0039 38.7581C27.4364 38.8999 26.8458 38.9241 26.2686 38.8291C25.6914 38.734 25.1397 38.5219 24.6475 38.2056C24.1554 37.8894 23.7332 37.4758 23.4069 36.9902L23.1773 36.6649C22.8639 36.1939 22.4363 35.81 21.9343 35.549C21.4324 35.288 20.8725 35.1584 20.3069 35.1723C19.7672 35.1863 19.2384 35.3269 18.7631 35.5829C18.2878 35.8388 17.8792 36.2029 17.5705 36.6458L17.1304 37.2772C16.804 37.7662 16.3809 38.1832 15.8873 38.5024C15.3936 38.8216 14.8398 39.0364 14.26 39.1334C14.0118 39.1577 13.7619 39.1577 13.5137 39.1334ZM5.45754 19.2705C6.53812 19.6558 7.51315 20.2894 8.30418 21.1203C9.0952 21.9512 9.68012 22.9562 10.0119 24.0544V24.284C10.4251 25.4257 10.5607 26.6494 10.4077 27.8538C10.2546 29.0583 9.81723 30.2091 9.13161 31.2112C9.01059 31.3449 8.94357 31.5188 8.94357 31.6992C8.94357 31.8795 9.01059 32.0534 9.13161 32.1871L13.2458 35.3063C13.2995 35.3484 13.3616 35.3786 13.4279 35.3948C13.4942 35.411 13.5632 35.4128 13.6302 35.4001C13.6973 35.3874 13.7609 35.3605 13.8167 35.3212C13.8725 35.2819 13.9193 35.2312 13.9538 35.1723L14.394 34.5408C15.0578 33.5817 15.9442 32.7978 16.9774 32.2564C18.0106 31.7149 19.1596 31.4321 20.3261 31.4321C21.4925 31.4321 22.6415 31.7149 23.6747 32.2564C24.7079 32.7978 25.5944 33.5817 26.2582 34.5408L26.4878 34.8853C26.57 35.002 26.6929 35.0839 26.8322 35.1149C26.8962 35.1243 26.9613 35.1207 27.0238 35.1043C27.0863 35.0878 27.1448 35.0589 27.1958 35.0192L31.1378 32.034C31.2758 31.9245 31.3666 31.7663 31.3915 31.5919C31.4164 31.4175 31.3735 31.2402 31.2717 31.0964L30.7742 30.3692C30.1259 29.4239 29.6982 28.3451 29.5227 27.2124C29.3472 26.0796 29.4283 24.922 29.76 23.8248C30.0963 22.6716 30.7046 21.616 31.5338 20.7469C32.363 19.8778 33.3887 19.2205 34.5248 18.8303L34.9075 18.6964C35.067 18.6325 35.1948 18.5081 35.2629 18.3503C35.331 18.1926 35.334 18.0143 35.2711 17.8544L33.7785 13.0896C33.7427 13.0062 33.6903 12.931 33.6245 12.8685C33.5587 12.806 33.4809 12.7575 33.3958 12.726C33.3395 12.6974 33.2772 12.6825 33.214 12.6825C33.1509 12.6825 33.0886 12.6974 33.0322 12.726L32.3816 12.9365C31.281 13.2997 30.1087 13.3903 28.9654 13.2003C27.8221 13.0103 26.742 12.5454 25.818 11.8458L25.7415 11.6735C24.8549 11.0021 24.136 10.1343 23.6413 9.13822C23.1466 8.14215 22.8895 7.04496 22.8903 5.9328V5.33959C22.8937 5.15515 22.8251 4.97664 22.6989 4.84206C22.5888 4.74257 22.4454 4.68795 22.297 4.68898H17.4366C17.3586 4.69384 17.2824 4.71406 17.2122 4.74846C17.1421 4.78286 17.0795 4.83077 17.0279 4.88945C16.9764 4.94812 16.9369 5.0164 16.9118 5.09036C16.8867 5.16433 16.8764 5.24252 16.8816 5.32046V5.79885C16.8817 6.94133 16.6195 8.06859 16.1153 9.09375C15.611 10.1189 14.878 11.0146 13.973 11.7118L13.7242 11.9032C12.7478 12.6466 11.6034 13.1384 10.3921 13.3353C9.18073 13.5322 7.93954 13.4281 6.77791 13.0322C6.69099 13.003 6.59692 13.003 6.51 13.0322C6.40201 13.0978 6.32068 13.1995 6.28038 13.3192L4.6921 18.3137C4.63674 18.4838 4.64971 18.6687 4.72828 18.8294C4.80685 18.9902 4.94485 19.114 5.11309 19.1748L5.45754 19.2705Z" fill="currentColor"/>
<path d="M20.0003 26.7017C18.6756 26.7017 17.3807 26.3089 16.2793 25.573C15.1779 24.837 14.3195 23.791 13.8126 22.5672C13.3056 21.3434 13.173 19.9967 13.4314 18.6976C13.6899 17.3984 14.3277 16.205 15.2644 15.2683C16.2011 14.3316 17.3945 13.6938 18.6936 13.4353C19.9928 13.1769 21.3395 13.3095 22.5633 13.8165C23.7871 14.3234 24.8331 15.1818 25.5691 16.2832C26.305 17.3846 26.6978 18.6795 26.6978 20.0042C26.6978 21.7805 25.9922 23.484 24.7361 24.74C23.4801 25.9961 21.7766 26.7017 20.0003 26.7017ZM20.0003 17.1338C19.4326 17.1338 18.8776 17.3021 18.4056 17.6175C17.9335 17.9329 17.5656 18.3812 17.3484 18.9057C17.1311 19.4302 17.0743 20.0074 17.1851 20.5642C17.2958 21.121 17.5692 21.6324 17.9706 22.0338C18.372 22.4353 18.8835 22.7086 19.4403 22.8194C19.9971 22.9301 20.5742 22.8733 21.0987 22.6561C21.6232 22.4388 22.0715 22.0709 22.3869 21.5989C22.7023 21.1268 22.8706 20.5719 22.8706 20.0042C22.8706 19.2429 22.5682 18.5128 22.0299 17.9745C21.4916 17.4362 20.7615 17.1338 20.0003 17.1338Z" fill="currentColor"/>
</svg>
